<?xml version="1.0" encoding="UTF-8"?>
<svg xmlns="http://www.w3.org/2000/svg" xmlns:xlink="http://www.w3.org/1999/xlink" viewBox="0 0 100 100" width="100px" height="100px">
<g id="surface916964">
<path style=" stroke:none;fill-rule:nonzero;fill:rgb(58.431375%,64.705884%,65.098041%);fill-opacity:1;" d="M 83.25 21.539062 C 75.289062 15.132812 62.695312 14.046875 62.15625 14.007812 C 61.320312 13.9375 60.523438 14.40625 60.179688 15.179688 C 60.148438 15.226562 59.875 15.859375 59.570312 16.84375 C 64.835938 17.734375 71.304688 19.523438 77.15625 23.15625 C 78.09375 23.734375 78.382812 24.96875 77.804688 25.90625 C 77.421875 26.523438 76.773438 26.859375 76.101562 26.859375 C 75.742188 26.859375 75.375 26.757812 75.046875 26.554688 C 64.984375 20.3125 52.421875 20 50 20 C 47.578125 20 35.007812 20.3125 24.953125 26.554688 C 24.015625 27.140625 22.78125 26.851562 22.203125 25.914062 C 21.617188 24.96875 21.90625 23.742188 22.84375 23.15625 C 28.695312 19.53125 35.164062 17.734375 40.429688 16.851562 C 40.125 15.859375 39.851562 15.234375 39.828125 15.179688 C 39.476562 14.40625 38.6875 13.921875 37.84375 14.007812 C 37.304688 14.046875 24.710938 15.132812 16.640625 21.625 C 12.429688 25.523438 4 48.304688 4 68 C 4 68.351562 4.09375 68.6875 4.265625 68.992188 C 10.078125 79.210938 25.945312 81.882812 29.5625 82 C 29.578125 82 29.601562 82 29.625 82 C 30.265625 82 30.867188 81.695312 31.242188 81.179688 L 34.898438 76.148438 C 25.03125 73.601562 19.992188 69.273438 19.703125 69.015625 C 18.875 68.289062 18.796875 67.023438 19.53125 66.195312 C 20.257812 65.367188 21.523438 65.289062 22.351562 66.015625 C 22.46875 66.125 31.75 74 50 74 C 68.28125 74 77.5625 66.09375 77.65625 66.015625 C 78.484375 65.296875 79.742188 65.367188 80.476562 66.203125 C 81.203125 67.03125 81.125 68.289062 80.296875 69.015625 C 80.007812 69.273438 74.96875 73.601562 65.101562 76.148438 L 68.757812 81.179688 C 69.132812 81.695312 69.734375 82 70.375 82 C 70.398438 82 70.421875 82 70.4375 82 C 74.054688 81.882812 89.921875 79.210938 95.734375 68.992188 C 95.90625 68.6875 96 68.351562 96 68 C 96 48.304688 87.570312 25.523438 83.25 21.539062 Z M 37 60 C 33.132812 60 30 56.421875 30 52 C 30 47.578125 33.132812 44 37 44 C 40.867188 44 44 47.578125 44 52 C 44 56.421875 40.867188 60 37 60 Z M 63 60 C 59.132812 60 56 56.421875 56 52 C 56 47.578125 59.132812 44 63 44 C 66.867188 44 70 47.578125 70 52 C 70 56.421875 66.867188 60 63 60 Z M 63 60 "/>
</g>
</svg>
