<svg width="211" height="47" viewBox="0 0 211 47" fill="none" xmlns="http://www.w3.org/2000/svg">
<path d="M24.4445 37.892C24.6065 37.73 24.8225 37.73 25.0385 37.676C25.7945 37.352 26.4965 36.92 27.2525 36.65C27.9005 36.272 28.4945 35.894 29.0885 35.516C29.3045 35.408 29.4665 35.3 29.6825 35.192C30.6005 34.652 31.4105 33.896 32.2205 33.14C32.4905 32.87 32.7605 32.546 32.9765 32.276C33.4625 31.574 33.9485 30.98 34.4345 30.278C34.6505 30.008 34.8125 29.738 34.9745 29.468C35.2445 28.874 35.5685 28.28 35.7845 27.632C35.9465 27.146 36.1085 26.606 36.3245 26.12C36.5405 25.418 36.7565 24.77 36.7565 24.014C36.7565 23.798 36.8105 23.582 36.8645 23.366C37.1345 22.394 37.1885 21.422 37.1885 20.45C37.1885 20.126 37.1885 19.802 37.1885 19.478C37.1885 18.452 37.1345 17.48 37.0805 16.508C37.0265 16.238 37.0265 15.968 36.9185 15.698C36.8645 15.482 36.8105 15.266 36.7565 15.05C36.7025 14.51 36.4865 14.024 36.3785 13.484C36.2705 13.052 36.0545 12.62 35.9465 12.242C35.7305 11.594 35.4065 11 35.0285 10.46C34.4345 9.542 33.8405 8.678 33.1925 7.76C32.8145 7.22 32.3825 6.734 31.8965 6.248C30.9785 5.276 30.0065 4.466 29.0345 3.548C28.8725 3.44 28.6565 3.278 28.4945 3.17C27.4145 2.414 26.2265 1.82 25.0385 1.28C24.8765 1.226 24.7145 1.226 24.5525 1.172C24.2825 1.064 23.9585 0.955997 23.6345 0.847999C23.3645 0.793999 23.0945 0.685998 22.8245 0.631998C22.5005 0.577999 22.1765 0.577999 21.8525 0.469997C21.5285 0.415998 21.2585 0.307999 20.9345 0.253997C20.7185 0.199997 20.5025 0.199997 20.2325 0.199997C19.8005 0.145998 19.3685 0.145998 18.9365 0.145998C18.3425 0.145998 17.7485 0.199997 17.1545 0.361999C16.9925 0.415998 16.8305 0.469997 16.6685 0.469997C15.8585 0.524 15.0485 0.793999 14.2925 1.064C13.7525 1.226 13.2665 1.388 12.7265 1.55C11.8625 1.874 10.9445 2.144 10.1345 2.63C9.91845 2.792 9.64845 2.9 9.43245 3.008C8.78445 3.278 8.19045 3.71 7.65045 4.142C7.32645 4.466 6.89445 4.682 6.62445 5.006C5.97645 5.654 5.32845 6.356 4.78845 7.112C4.35645 7.814 3.92445 8.516 3.54645 9.218C3.16845 9.974 2.84445 10.73 2.46645 11.432C2.19645 11.918 1.98045 12.404 1.76445 12.944C1.71045 13.106 1.60245 13.268 1.60245 13.43C1.44045 14.186 1.22445 14.888 1.00845 15.644C0.954453 15.752 0.954453 15.968 0.900453 16.13C0.846453 16.67 0.846453 17.21 0.738453 17.75C0.576453 18.668 0.576453 19.586 0.576453 20.504C0.576453 20.936 0.630453 21.314 0.738453 21.638C0.846453 21.962 0.846453 22.286 0.900453 22.61C0.900453 22.988 0.900453 23.312 1.00845 23.636C1.11645 24.014 1.17045 24.446 1.27845 24.878C1.44045 25.526 1.60245 26.174 1.87245 26.768C2.25045 27.524 2.57445 28.28 2.95245 28.982C3.16845 29.468 3.43845 29.954 3.81645 30.386C4.08645 30.656 4.30245 30.926 4.57245 31.25C4.78845 31.466 4.95045 31.628 5.16645 31.844C5.54445 32.168 5.92245 32.492 6.30045 32.762C6.89445 33.14 7.43445 33.626 7.92045 34.112C8.02845 34.22 8.19045 34.382 8.29845 34.49C8.56845 34.706 8.89245 34.976 9.21645 35.138C9.81045 35.516 10.4585 35.894 11.0525 36.272C11.4845 36.542 11.9705 36.812 12.5105 37.028C13.2125 37.298 13.9145 37.622 14.5625 38C14.6165 38 14.6705 38 14.7245 38.054C14.7785 38.108 14.8325 38.108 14.8325 38.162C14.8865 38.27 14.7785 38.324 14.6705 38.378C13.5905 38.864 12.7805 39.62 12.0245 40.538C11.5925 41.132 11.2145 41.726 10.8365 42.32C10.2965 43.238 9.91845 44.156 9.59445 45.182C9.48645 45.506 9.43245 45.83 9.37845 46.154C9.37845 46.208 9.37845 46.262 9.43245 46.316C9.43245 46.37 9.43245 46.424 9.43245 46.478C9.48645 46.748 9.81045 46.91 10.0265 46.802C10.5125 46.586 10.8905 46.262 11.2685 45.938C11.5385 45.668 11.8625 45.506 12.2405 45.344C12.7805 45.074 13.3745 44.912 13.9145 44.75C14.0765 44.696 14.2385 44.642 14.4005 44.642C15.5885 44.588 16.7225 44.534 17.8565 44.858C18.1265 44.912 18.3965 44.912 18.6665 44.966C18.9905 44.966 19.3145 44.966 19.6385 45.074C20.4485 45.29 21.2585 45.236 22.0685 45.56C22.7165 45.614 23.3645 45.83 24.0125 45.884C24.6605 45.938 25.3085 46.1 25.9565 46.208C26.4965 46.316 27.0365 46.316 27.5765 46.478C27.7385 46.532 28.0085 46.586 28.2245 46.586C29.5745 46.694 30.9245 46.694 32.3285 46.64C32.9225 46.64 33.5165 46.478 34.1105 46.316C34.7585 46.154 35.4605 45.884 36.1085 45.614C36.5405 45.452 36.9725 45.236 37.4045 44.912C38.1605 44.372 38.9165 43.832 39.6185 43.184C39.8885 42.914 40.1585 42.644 40.4285 42.374C40.6985 42.104 40.9145 41.834 41.0765 41.456C41.2385 41.186 41.4005 40.862 41.5085 40.592C41.7245 40.214 41.7245 39.836 41.7245 39.458C41.7245 39.242 41.5085 39.026 41.3465 39.026C41.2925 39.026 41.2385 38.972 41.1845 38.972C40.5365 39.026 39.8345 39.026 39.2405 39.242C38.7545 39.404 38.2145 39.35 37.7825 39.458C37.1885 39.566 36.5405 39.62 35.9465 39.62C35.4065 39.566 34.8665 39.62 34.3265 39.566C33.7865 39.458 33.2465 39.458 32.7065 39.404C31.7885 39.35 30.9245 39.35 30.0605 39.134C30.0065 39.08 29.9525 39.08 29.8985 39.08C29.1965 39.026 28.4945 38.972 27.7925 38.756C26.8205 38.702 25.8485 38.378 24.8765 38.27C24.8225 38.27 24.7685 38.216 24.7145 38.216C24.6065 38.162 24.4445 38.054 24.4445 37.892ZM11.8625 32.492C11.3765 31.52 11.0525 30.656 10.6205 29.846C10.3505 29.36 10.1885 28.82 10.1345 28.28C10.0805 27.578 9.86445 26.984 9.70245 26.336C9.59445 25.742 9.48645 25.148 9.43245 24.554C9.43245 24.23 9.37845 23.906 9.37845 23.582C9.37845 23.366 9.32445 23.15 9.27045 22.934C9.05445 21.908 9.10845 20.882 9.21645 19.802C9.37845 19.262 9.43245 18.722 9.43245 18.182C9.48645 17.426 9.48645 16.67 9.64845 15.914C9.70245 15.644 9.70245 15.374 9.75645 15.104C9.75645 14.564 9.81045 14.078 9.97245 13.646C10.0265 13.43 10.0265 13.214 10.0805 12.998C10.6745 10.136 11.2145 8.624 12.3485 6.464C12.4565 6.302 12.5645 6.14 12.7265 5.924C12.9965 5.6 13.2665 5.276 13.5365 4.898C13.6445 4.79 13.7525 4.682 13.8605 4.574C14.3465 4.196 14.8325 3.818 15.3185 3.44C15.4805 3.332 15.6425 3.224 15.8585 3.116C16.1825 2.9 16.5605 2.738 16.9385 2.738C17.8025 2.738 18.6665 2.684 19.5845 2.792C20.0165 2.792 20.4485 2.846 20.8265 2.9C21.9605 3.224 22.8785 3.818 23.8505 4.304C24.0665 4.412 24.2825 4.574 24.4985 4.736C24.7685 4.952 25.0385 5.168 25.2005 5.438C25.4165 5.762 25.6325 6.086 25.9025 6.41C26.3885 7.058 26.7125 7.814 27.0905 8.57C27.1445 8.624 27.1445 8.732 27.1985 8.84C27.3605 9.38 27.5765 9.866 27.7385 10.406C27.9005 11.054 28.1165 11.648 28.2245 12.296C28.2785 12.89 28.4945 13.484 28.6025 14.078C28.6565 14.672 28.8725 15.266 28.9805 15.86C29.2505 16.616 29.2505 17.48 29.3045 18.29C29.3045 18.938 29.3045 19.586 29.2505 20.234C29.2505 21.152 29.1965 22.016 29.1425 22.88C29.1425 23.258 29.0885 23.636 29.0345 24.014C28.9805 24.284 28.9265 24.554 28.9265 24.824C28.8725 25.202 28.7645 25.58 28.6565 25.958C28.4945 26.606 28.3325 27.254 28.2245 27.902C28.0625 28.766 27.7925 29.576 27.4685 30.386C27.1445 31.142 26.8205 31.898 26.4425 32.654C26.2805 32.924 26.1185 33.194 25.8485 33.41C25.0925 34.274 24.1205 34.922 23.0945 35.462C22.7705 35.57 22.5005 35.678 22.1765 35.786C21.7985 35.84 21.4205 35.948 21.0425 36.056C20.7185 36.11 20.3945 36.218 20.0705 36.272C19.9085 36.326 19.7465 36.38 19.5845 36.38C18.8825 36.434 18.1805 36.488 17.4785 36.38C16.9385 36.272 16.3985 36.056 15.9125 35.84C15.2645 35.57 14.6705 35.192 14.1305 34.706C13.3745 33.95 12.6185 33.248 11.8625 32.492ZM43.9629 11.054C42.5049 11.162 41.1009 11.108 39.6429 11.162C39.2649 11.162 38.8869 11.162 38.4549 11.162C38.2929 11.216 38.1849 11.27 38.0229 11.378C37.8609 11.486 37.9149 11.864 38.0769 11.972C38.1849 12.026 38.2389 12.08 38.3469 12.08C38.8329 12.134 39.2109 12.296 39.5889 12.62C39.8589 12.782 40.0749 13.052 40.2369 13.322C40.6689 14.078 41.1549 14.834 41.3709 15.698C41.5329 16.184 41.7489 16.67 41.9649 17.102C42.0729 17.426 42.1809 17.696 42.2889 18.02C42.4509 18.56 42.6129 19.1 42.8289 19.586C43.0989 20.342 43.3689 21.044 43.5309 21.8C43.6929 22.556 43.9629 23.312 44.2329 24.014C44.7189 25.31 45.1509 26.66 45.5829 27.956C45.7989 28.55 45.9609 29.144 46.2309 29.684C46.8789 31.034 47.4189 32.438 48.1209 33.734C48.2829 34.058 48.3909 34.328 48.4989 34.652C48.7149 35.408 49.0929 36.11 49.3089 36.812C49.4169 37.028 49.5249 37.244 49.6329 37.406C49.6869 37.514 49.7949 37.622 49.9029 37.622C50.3349 37.784 50.8209 37.946 51.3609 37.946C52.0089 37.946 52.6569 37.946 53.3049 38C53.5749 38 53.7909 37.946 54.0069 37.946C54.1689 37.946 54.3309 37.838 54.4389 37.73C54.5469 37.622 54.7089 37.514 54.7629 37.352C55.0869 36.65 55.3029 35.948 55.5729 35.192C55.9509 34.058 56.2749 32.87 56.7069 31.736C57.0849 30.494 57.5169 29.306 57.8949 28.118C58.3809 26.714 58.8669 25.418 59.2989 24.014C59.3529 23.798 59.4609 23.582 59.5149 23.366C59.5689 23.258 59.6769 23.204 59.7309 23.204C59.7849 23.204 59.8389 23.258 59.8389 23.312C60.2709 24.284 60.5949 25.256 60.9189 26.282C61.0269 26.714 61.1889 27.146 61.3509 27.524C61.8369 28.928 62.3229 30.224 62.9709 31.52C63.6189 32.816 64.1589 34.166 64.5369 35.57C64.6989 36.218 65.0229 36.812 65.4009 37.352C65.6169 37.73 65.9949 38 66.4809 38C67.6149 38 68.6949 38 69.8289 37.946C69.8829 37.946 69.9369 37.946 69.9909 37.946C70.1529 37.892 70.3149 37.838 70.3689 37.676C70.6389 37.352 70.7469 37.028 70.8549 36.65C71.1789 35.57 71.5029 34.49 71.8269 33.464C72.4209 31.628 72.9609 29.738 73.5009 27.902C73.6629 27.416 73.8249 26.93 73.8789 26.444C74.2029 25.202 74.5269 23.96 74.8509 22.772C75.0129 22.07 75.2829 21.368 75.4449 20.666C75.6609 19.856 75.9309 18.992 76.1469 18.128C76.3629 17.264 76.5789 16.4 76.8489 15.536C76.9029 15.212 77.0109 14.888 77.1189 14.618C77.2809 14.132 77.4969 13.7 77.6049 13.214C77.6589 12.944 77.8209 12.836 78.0369 12.728C78.4149 12.566 78.7929 12.458 79.1709 12.404C79.5489 12.404 79.9269 12.35 80.3049 12.296C80.5209 12.296 80.7369 12.188 80.9529 12.08C81.0609 11.972 81.1149 11.702 81.0069 11.594C80.7369 11.27 80.4129 11.108 80.0349 11.054C79.8189 11.054 79.6029 11.054 79.3869 11.054C78.6849 11.054 78.0369 11.108 77.3889 11.054C75.6609 11.054 73.9329 11.054 72.2049 11C71.8809 11 71.5569 11 71.2329 11.054C71.1249 11.054 71.0169 11.108 70.9089 11.162C70.8009 11.324 70.8549 11.648 71.0169 11.756C71.1789 11.918 71.3949 12.026 71.6109 12.026C72.3669 12.08 73.1229 12.35 73.8789 12.458C74.3109 12.512 74.5809 12.782 74.7969 13.106C74.8509 13.322 74.9589 13.538 75.0129 13.754C75.1209 13.97 75.1209 14.186 75.0669 14.402C74.9049 15.212 74.6889 16.022 74.5269 16.832C74.3649 17.588 74.2029 18.344 73.9869 19.1C73.9329 19.262 73.8789 19.424 73.8789 19.586C73.8789 20.288 73.6089 20.99 73.3929 21.692C72.7989 23.474 72.3129 25.256 71.7189 27.038C71.3949 28.01 71.1249 28.982 70.8009 29.9C70.7469 30.116 70.6929 30.332 70.5849 30.548C70.5309 30.656 70.4769 30.71 70.4229 30.818C70.3689 30.926 70.2609 30.98 70.1529 30.926C70.0449 30.926 69.9369 30.872 69.8829 30.764C69.4509 30.116 69.2349 29.36 68.9649 28.604C68.8029 28.118 68.6409 27.578 68.4249 27.038C68.1549 26.498 67.9389 25.958 67.6689 25.418C67.3449 24.77 67.0749 24.068 66.9129 23.366C66.3729 21.746 65.8329 20.126 65.2389 18.506C65.0769 18.02 64.8609 17.588 64.8069 17.102C64.3749 15.86 64.0509 14.618 63.6189 13.43C63.5109 13.268 63.5109 12.998 63.4569 12.782C63.4569 12.674 63.4569 12.566 63.5109 12.458C63.5109 12.296 63.6189 12.134 63.7809 12.08C64.2129 11.972 64.6449 11.864 65.0769 11.81C65.1849 11.81 65.2929 11.702 65.4009 11.702C65.5089 11.648 65.6169 11.378 65.5089 11.27C65.4549 11.216 65.3469 11.108 65.2929 11.054C64.9149 10.892 64.5369 10.838 64.1589 10.838C62.7009 10.838 61.2429 10.838 59.7849 10.784C58.2729 10.784 56.7069 10.784 55.1409 10.838C54.6009 10.838 54.0609 10.946 53.5209 11.108C53.3049 11.162 53.1429 11.594 53.3049 11.81C53.3589 11.918 53.4129 11.972 53.5209 12.026C53.8449 12.134 54.1689 12.188 54.4929 12.242C54.9789 12.35 55.4109 12.62 55.6809 13.106C55.8429 13.376 56.0589 13.646 56.2749 13.916C56.4909 14.186 56.6529 14.456 56.7609 14.726C57.2469 15.752 57.7329 16.778 58.1109 17.804C58.2189 18.074 58.2189 18.344 58.1649 18.614C58.1649 18.776 58.1649 18.938 58.1109 19.1C57.7329 20.72 57.3549 22.34 56.8149 23.906C56.4909 24.932 56.1669 25.904 55.8429 26.93C55.5189 27.956 55.1409 29.036 54.8169 30.062C54.7629 30.332 54.6549 30.602 54.4929 30.818C54.3849 30.98 54.1689 30.98 54.0609 30.872C53.9529 30.764 53.8989 30.71 53.8449 30.602C53.6289 30.062 53.4129 29.576 53.1969 29.036C52.9269 28.388 52.6569 27.74 52.3869 27.038C52.1709 26.444 51.9549 25.796 51.7389 25.202C51.4689 24.5 51.2529 23.798 51.0369 23.15C50.7129 22.016 50.3349 20.936 50.0649 19.802C49.9029 19.1 49.6329 18.398 49.3629 17.75C48.8769 16.67 48.6069 15.536 48.3369 14.402C48.1749 13.97 48.1749 13.43 48.2289 12.944C48.2829 12.728 48.3909 12.512 48.6069 12.404C48.7149 12.296 48.8769 12.188 48.9849 12.134C49.1469 12.026 49.3089 12.026 49.4709 11.918C49.5789 11.864 49.6869 11.864 49.7409 11.756C49.7949 11.702 49.8489 11.594 49.9029 11.486C49.9569 11.378 49.7409 11.162 49.5789 11.108C48.9849 11 48.3909 11 47.7969 11C46.5009 10.946 45.2589 10.946 43.9629 11.054ZM93.8918 11.162C93.4598 11.162 93.0278 11.162 92.5958 11.108C91.9478 11.108 91.3538 11.162 90.7598 11.324C90.1118 11.432 89.4638 11.702 88.8158 11.756C88.0598 11.864 87.3038 12.134 86.5478 12.35C85.9538 12.512 85.3058 12.782 84.7118 13.052C83.9018 13.376 83.0918 13.808 82.4438 14.402C82.2818 14.618 82.0118 14.78 81.7958 14.942C81.6878 15.05 81.5258 15.158 81.4178 15.266C80.9858 15.752 80.4998 16.238 80.1218 16.778C79.7978 17.156 79.5278 17.588 79.3658 18.02C78.9338 19.046 78.4478 20.072 78.2318 21.152C78.1238 21.746 78.0158 22.34 77.7998 22.934C77.6918 23.366 77.6378 23.798 77.6378 24.284C77.6378 25.04 77.6378 25.796 77.6378 26.606C77.6378 27.362 77.6918 28.118 77.9078 28.874C77.9618 29.09 77.9618 29.36 78.0158 29.522C78.1238 29.954 78.2318 30.44 78.3938 30.818C79.0958 32.492 80.2298 33.842 81.6338 34.976C82.7138 35.624 83.7938 36.326 84.9278 36.92C85.2518 37.082 85.6298 37.244 85.9538 37.406C86.8178 37.838 87.7358 38 88.6538 38.27C89.1398 38.378 89.6798 38.324 90.1658 38.378C90.9758 38.378 91.7858 38.378 92.6498 38.378C92.9198 38.378 93.1898 38.324 93.4598 38.27C94.6478 37.892 95.7818 37.46 96.8618 36.974C97.9418 36.434 98.9138 35.84 99.8858 35.192C100.048 35.03 100.21 34.868 100.318 34.706C100.426 34.436 100.48 34.166 100.318 33.896C100.156 33.518 99.7238 33.356 99.3458 33.464C99.2918 33.464 99.2378 33.464 99.1838 33.464C98.6438 33.734 98.0498 33.842 97.4558 34.058C96.9158 34.274 96.3218 34.382 95.7278 34.544C95.4578 34.598 95.1878 34.652 94.9178 34.652C94.2698 34.706 93.6758 34.598 93.0818 34.436C92.3798 34.274 91.7318 34.058 91.0298 33.788C90.8678 33.734 90.7598 33.626 90.5978 33.572C89.6258 32.978 88.8158 32.222 88.1138 31.358C87.5738 30.71 87.1418 30.008 86.6558 29.36C86.5478 29.198 86.3858 28.982 86.3318 28.766C85.8458 27.47 85.3598 26.174 85.0358 24.824C85.0358 24.716 85.0898 24.608 85.1978 24.554C85.3058 24.5 85.4138 24.446 85.5218 24.446C85.9538 24.392 86.3858 24.446 86.8178 24.284C87.1418 24.176 87.4658 24.176 87.7898 24.176C88.7618 24.176 89.6798 24.176 90.6518 24.176C91.8938 24.176 93.1898 24.23 94.4858 24.176C95.6198 24.122 96.8078 24.122 97.9418 24.122C98.8058 24.122 99.6158 24.068 100.426 24.068C100.804 24.068 101.128 23.852 101.29 23.366C101.398 22.988 101.506 22.61 101.506 22.232C101.506 21.8 101.452 21.368 101.398 20.936C101.236 20.288 101.182 19.586 100.966 18.992C100.912 18.29 100.696 17.696 100.534 17.048C100.426 16.508 100.21 15.968 100.048 15.428C99.9398 15.158 99.7778 14.834 99.5078 14.618C99.0758 14.132 98.5898 13.646 97.9958 13.322C97.5098 12.998 96.9698 12.674 96.4838 12.296C96.2678 12.134 95.9978 12.026 95.7818 11.918C95.1338 11.648 94.5398 11.432 93.8918 11.162ZM85.5218 22.448C85.4678 22.34 85.4138 22.286 85.3058 22.178C85.2518 21.746 85.3058 21.314 85.3598 20.882C85.5218 20.288 85.5758 19.64 85.7918 19.1C85.9538 18.614 86.1158 18.128 86.2238 17.642C86.3858 17.048 86.7098 16.562 87.0878 16.076C87.3038 15.806 87.5198 15.536 87.7358 15.32C88.0598 14.888 88.5458 14.564 89.0318 14.294C89.4098 14.078 89.8418 13.916 90.2738 13.862C90.8138 13.754 91.3538 13.646 91.8938 13.538C92.3258 13.43 92.7578 13.484 93.1898 13.7C93.2978 13.754 93.4058 13.808 93.4598 13.862C93.8378 14.078 94.1078 14.348 94.3238 14.672C94.5398 15.05 94.6478 15.482 94.8098 15.914C94.8638 15.968 94.9178 16.13 94.9178 16.238C94.9178 16.4 94.9718 16.562 94.9718 16.724C94.9718 18.02 94.9718 19.37 94.9178 20.666C94.9178 21.098 94.9178 21.476 94.8098 21.854C94.7558 22.016 94.7018 22.178 94.5938 22.286C94.5398 22.34 94.4318 22.394 94.3238 22.448C94.2158 22.502 94.1078 22.502 93.9998 22.502C91.3538 22.502 88.7078 22.502 86.0078 22.502C85.8458 22.502 85.6838 22.448 85.5218 22.448ZM116.135 32.654C116.027 33.194 115.973 33.734 115.757 34.274C115.433 34.922 115.055 35.408 114.461 35.786C114.191 35.948 113.867 36.056 113.543 36.11C112.301 36.164 111.113 36.164 109.871 36.11C109.763 36.11 109.655 36.11 109.547 36.11C109.331 36.056 109.115 36.056 108.899 36.002C108.629 35.894 108.359 35.84 108.089 35.732C107.441 35.516 106.901 35.192 106.415 34.706C106.037 34.382 105.659 34.004 105.335 33.68C104.957 33.302 104.687 32.924 104.471 32.438C104.309 32.114 104.147 31.736 103.985 31.412C103.823 31.034 103.715 30.656 103.553 30.332C103.499 30.224 103.391 30.17 103.283 30.224C103.175 30.224 103.067 30.332 103.067 30.44C103.013 30.602 103.013 30.764 103.013 30.926C103.013 31.25 103.067 31.574 103.121 31.898C103.229 32.276 103.283 32.654 103.283 33.086C103.337 33.518 103.391 33.95 103.337 34.382C103.337 35.138 103.499 35.84 103.715 36.542C103.769 36.758 103.931 36.92 104.147 37.028C104.633 37.244 105.119 37.46 105.605 37.622C106.145 37.73 106.631 37.784 107.117 37.892C107.603 37.946 108.035 38 108.467 38C109.817 38.054 111.113 38.054 112.463 38.054C112.895 38.054 113.327 38.054 113.759 38C114.137 38 114.407 37.838 114.731 37.838C115.379 37.73 115.973 37.568 116.567 37.46C117.323 37.244 117.971 36.92 118.565 36.38C119.267 35.732 119.915 35.03 120.455 34.274C120.563 34.166 120.671 34.004 120.725 33.842C121.211 33.086 121.589 32.276 121.805 31.412C121.859 31.25 121.913 31.088 121.913 30.98C121.913 30.44 121.913 29.954 121.913 29.468C121.859 29.252 121.751 29.036 121.697 28.82C121.481 28.01 121.103 27.254 120.725 26.552C120.347 25.958 119.915 25.472 119.375 25.04C119.051 24.77 118.673 24.554 118.349 24.23C117.539 23.582 116.621 22.988 115.757 22.448C114.623 21.746 113.435 21.098 112.301 20.396C111.275 19.748 110.303 18.992 109.493 18.128C109.385 17.966 109.223 17.858 109.169 17.75C108.899 17.372 108.737 16.94 108.683 16.508C108.683 15.968 108.683 15.374 108.899 14.888C108.953 14.726 108.953 14.51 109.061 14.402C109.331 13.7 109.655 13.106 110.357 12.728C110.573 12.62 110.735 12.512 110.951 12.458C111.275 12.404 111.599 12.296 111.869 12.242C113.003 12.134 114.029 12.242 115.109 12.512C115.433 12.674 115.757 12.836 116.135 12.998C116.513 13.214 116.891 13.484 117.215 13.808C117.809 14.456 118.349 15.158 118.619 16.022C118.781 16.508 118.997 16.94 119.051 17.426C119.105 17.642 119.213 17.858 119.267 18.074C119.321 18.128 119.321 18.182 119.321 18.236C119.429 18.29 119.537 18.344 119.591 18.398C119.699 18.452 119.969 18.29 119.969 18.182C120.023 17.912 120.077 17.696 120.077 17.48C120.077 16.022 120.077 14.51 120.023 12.998C119.969 12.89 119.969 12.782 119.969 12.674C119.915 12.512 119.807 12.35 119.699 12.242C119.483 12.08 119.267 11.918 118.997 11.81C117.539 11.27 116.675 11.108 115.109 11.054C113.813 11.054 112.517 11.054 111.275 11.054C110.627 11.054 110.033 11.108 109.439 11.324C109.385 11.378 109.223 11.378 109.115 11.432C108.575 11.432 108.089 11.648 107.495 11.756C107.009 11.864 106.577 12.134 106.199 12.458C105.875 12.728 105.551 13.052 105.227 13.376C104.687 13.916 104.309 14.564 103.985 15.266C103.823 15.536 103.769 15.806 103.715 16.076C103.661 16.292 103.607 16.508 103.553 16.724C103.445 17.048 103.391 17.372 103.391 17.696C103.391 18.074 103.391 18.506 103.391 18.884C103.391 19.208 103.445 19.532 103.499 19.856C103.553 20.018 103.607 20.18 103.607 20.342C103.661 20.882 103.877 21.422 104.201 21.908C104.363 22.232 104.579 22.556 104.795 22.88C105.281 23.636 105.875 24.284 106.631 24.824C107.279 25.31 107.981 25.742 108.737 26.12C109.871 26.66 111.005 27.254 112.139 27.848C113.327 28.442 114.407 29.252 115.325 30.224C115.379 30.278 115.487 30.386 115.541 30.494C115.757 30.764 115.973 31.142 116.027 31.52C116.027 31.898 116.081 32.276 116.135 32.654ZM126.23 33.194C126.446 33.68 126.662 34.166 126.878 34.706C126.986 34.868 127.094 35.084 127.202 35.246C127.472 35.57 127.796 35.894 128.174 36.164C128.822 36.488 129.416 36.866 130.064 37.19C130.604 37.46 131.198 37.73 131.792 37.784C132.116 37.838 132.44 38 132.764 38C133.088 38.054 133.412 38.054 133.736 38.054C134.222 38.054 134.654 38.054 135.086 38.054C135.248 38.054 135.41 38.054 135.572 38C136.058 37.892 136.544 37.784 137.03 37.622C137.732 37.352 138.434 37.028 139.082 36.596C139.244 36.488 139.352 36.38 139.514 36.272C139.784 36.002 139.892 35.624 139.892 35.246C139.892 34.922 139.622 34.706 139.406 34.652C139.028 34.652 138.704 34.652 138.38 34.706C137.678 34.76 136.922 34.814 136.22 34.76C135.68 34.706 135.248 34.544 134.87 34.166C134.6 33.842 134.384 33.464 134.276 33.032C134.168 32.816 134.168 32.546 134.114 32.33C133.898 31.628 133.844 30.818 133.79 30.062C133.79 29.36 133.79 28.604 133.682 27.902C133.628 27.686 133.628 27.47 133.628 27.254C133.628 26.282 133.628 25.364 133.628 24.392C133.628 24.122 133.628 23.852 133.682 23.582C133.79 22.988 133.79 22.394 133.79 21.746C133.79 20.504 133.844 19.208 133.844 17.912C133.844 16.724 133.844 15.482 133.844 14.294C133.844 14.132 133.844 13.97 133.898 13.808C133.952 13.7 134.006 13.592 134.114 13.538C134.168 13.484 134.33 13.484 134.438 13.484C135.626 13.43 136.868 13.43 138.056 13.43C138.434 13.43 138.866 13.43 139.244 13.43C139.46 13.43 139.784 13.16 139.838 12.89C139.838 12.674 139.838 12.458 139.838 12.242C139.784 12.134 139.568 11.918 139.514 11.864C139.298 11.864 139.082 11.864 138.812 11.864C137.678 11.81 136.49 11.81 135.356 11.81C135.086 11.81 134.816 11.81 134.492 11.81C134.168 11.81 133.952 11.54 133.952 11.162C133.952 11 133.952 10.784 134.006 10.622C134.114 9.974 134.168 9.326 134.006 8.678C133.952 8.462 133.952 8.246 133.952 7.976C133.952 7.166 133.898 6.356 133.898 5.492C133.898 4.682 133.898 3.872 133.898 3.008C133.898 2.252 133.898 1.442 133.79 0.685998C133.79 0.469997 133.466 0.145998 133.25 0.145998C133.142 0.145998 133.034 0.145998 132.926 0.145998C132.386 0.145998 131.9 0.145998 131.414 0.145998C129.74 0.145998 128.066 0.145998 126.446 0.145998C125.798 0.145998 125.204 0.0919988 124.61 0.199997C124.394 0.199997 124.232 0.415998 124.286 0.685998C124.286 0.793999 124.394 0.847999 124.502 0.901998C124.664 1.064 124.88 1.064 125.096 1.172C125.312 1.226 125.474 1.442 125.474 1.658C125.474 1.712 125.474 1.766 125.474 1.82C125.474 4.898 125.474 8.03 125.474 11.108C125.474 11.216 125.474 11.378 125.42 11.432C125.366 11.54 125.312 11.648 125.204 11.702C125.042 11.756 124.88 11.756 124.718 11.756C124.232 11.756 123.692 11.702 123.206 11.81C122.99 11.81 122.72 12.08 122.666 12.35C122.612 12.566 122.612 12.782 122.666 12.998C122.666 13.214 122.882 13.43 123.098 13.43C123.638 13.484 124.178 13.43 124.718 13.484C124.88 13.484 125.096 13.484 125.204 13.538C125.312 13.538 125.42 13.646 125.474 13.754C125.528 13.916 125.528 14.078 125.528 14.24C125.528 15.158 125.528 16.13 125.528 17.048C125.528 17.75 125.528 18.398 125.528 19.046C125.582 19.802 125.582 20.504 125.582 21.206C125.582 21.908 125.582 22.556 125.582 23.204C125.582 23.582 125.582 24.014 125.69 24.392C125.798 24.932 125.852 25.472 125.852 26.012C125.852 27.362 125.906 28.658 125.906 30.008C125.906 30.656 125.96 31.358 126.068 32.006C126.176 32.384 126.176 32.762 126.23 33.194ZM151.148 23.636C151.148 22.232 151.148 20.936 151.148 19.586C151.202 17.21 151.202 14.834 151.202 12.458C151.202 12.404 151.148 12.35 151.148 12.296C151.148 11.81 150.878 11.486 150.392 11.324C150.068 11.216 149.744 11.162 149.42 11.162C148.016 11.162 146.612 11.108 145.262 11.108C144.236 11.108 143.264 11.108 142.238 11.162C141.914 11.162 141.644 11.432 141.59 11.756C141.536 12.08 141.752 12.35 142.022 12.404C142.184 12.458 142.346 12.458 142.508 12.512C142.94 12.62 143.588 13.16 143.588 13.808C143.588 13.862 143.588 13.916 143.588 13.97C143.696 14.996 143.642 15.968 143.804 16.994C143.858 17.264 143.858 17.534 143.858 17.804C143.858 18.668 143.858 19.586 143.858 20.45C143.858 22.34 143.912 24.23 143.966 26.12C143.966 26.822 143.966 27.524 143.966 28.28C144.02 30.332 143.858 32.384 143.858 34.436C143.858 34.922 143.642 35.408 143.318 35.786C143.21 35.948 143.048 36.11 142.832 36.218C142.454 36.488 142.076 36.65 141.644 36.704C141.482 36.758 141.32 36.758 141.158 36.812C140.942 36.812 140.672 37.082 140.672 37.406C140.672 37.514 140.672 37.622 140.78 37.676C140.888 37.784 141.05 37.838 141.212 37.892C141.644 38 142.076 38 142.562 38C144.992 38.054 147.422 38.108 149.852 38.108C150.662 38.108 151.526 38.108 152.336 38.108C152.606 38.108 152.876 38.054 153.2 38.054C153.47 38 153.686 37.892 153.902 37.73C154.064 37.622 154.01 37.244 153.848 37.136C153.578 37.028 153.362 36.92 153.092 36.866C152.876 36.758 152.66 36.758 152.444 36.704C152.066 36.542 151.742 36.326 151.526 35.948C151.364 35.57 151.202 35.138 151.202 34.706C151.202 34.328 151.202 33.95 151.202 33.518C151.148 30.224 151.148 26.876 151.148 23.636ZM151.148 4.52C150.932 3.98 150.662 3.602 150.284 3.278C149.96 2.954 149.582 2.738 149.15 2.522C148.664 2.306 148.124 2.198 147.584 2.198C146.72 2.198 145.64 2.522 144.938 3.008C144.83 3.116 144.722 3.17 144.668 3.224C144.236 3.71 143.912 4.196 143.858 4.844C143.858 5.276 143.858 5.708 143.858 6.14C143.912 6.734 144.236 7.22 144.668 7.544C145.424 8.192 146.396 8.57 147.368 8.678C147.584 8.732 147.8 8.732 148.016 8.678C148.448 8.624 148.88 8.516 149.312 8.408C149.528 8.354 149.744 8.246 149.96 8.138C150.392 7.976 150.662 7.598 150.824 7.22C151.04 6.734 151.202 6.194 151.202 5.6C151.148 5.222 151.148 4.844 151.148 4.52ZM156.825 12.404C157.365 12.674 157.797 12.89 158.229 13.16C158.391 13.322 158.553 13.484 158.715 13.646C158.823 13.862 158.931 14.024 159.039 14.24C159.633 15.482 160.227 16.724 160.713 18.02C160.875 18.614 161.091 19.154 161.361 19.748C161.577 20.342 161.793 20.99 162.009 21.638C162.225 22.448 162.549 23.312 162.873 24.122C163.305 25.148 163.737 26.174 164.061 27.2C164.385 28.334 164.871 29.414 165.357 30.44C166.113 31.898 166.707 33.356 167.517 34.76C167.625 34.976 167.679 35.138 167.787 35.354C168.003 36.002 168.273 36.596 168.543 37.19C168.651 37.514 168.975 37.676 169.299 37.73C169.461 37.784 169.623 37.784 169.839 37.784C170.541 37.784 171.243 37.784 171.945 37.892C172.377 37.946 172.863 37.946 173.295 37.946C173.619 37.946 173.943 37.73 174.105 37.46C174.159 37.352 174.267 37.244 174.267 37.19C174.591 36.272 175.023 35.408 175.293 34.544C175.563 33.734 175.833 32.978 176.103 32.168C176.319 31.358 176.643 30.602 176.967 29.846C177.021 29.63 177.075 29.414 177.183 29.198C177.291 28.82 177.399 28.496 177.561 28.118C177.993 27.038 178.371 25.958 178.749 24.824C179.343 22.988 179.991 21.152 180.477 19.262C180.855 18.128 181.179 16.94 181.449 15.752C181.611 14.996 181.989 14.348 182.529 13.754C182.853 13.322 183.285 12.944 183.663 12.566C183.933 12.296 184.203 12.134 184.527 12.08C184.689 12.026 184.851 11.972 185.013 11.918C185.175 11.864 185.283 11.756 185.445 11.648C185.499 11.594 185.553 11.486 185.553 11.378C185.553 11.162 185.283 10.838 185.067 10.784C184.905 10.784 184.743 10.73 184.581 10.73C183.447 10.73 182.367 10.784 181.233 10.784C180.369 10.784 179.451 10.838 178.587 10.838C177.129 10.838 177.129 10.838 175.617 11.054C175.563 11.054 175.509 11.108 175.455 11.108C175.401 11.108 175.347 11.162 175.293 11.162C175.185 11.216 175.077 11.486 175.077 11.594C175.077 11.756 175.185 11.918 175.347 11.972C175.455 12.026 175.563 12.08 175.671 12.08C176.265 12.08 176.859 12.188 177.453 12.35C177.885 12.512 178.263 12.728 178.641 12.944C178.857 13.16 178.965 13.376 178.965 13.7C179.019 13.97 179.019 14.24 178.911 14.51C178.803 14.942 178.749 15.374 178.641 15.806C178.533 16.4 178.371 16.994 178.263 17.588C178.155 17.966 178.047 18.344 177.939 18.668C177.723 19.1 177.669 19.532 177.615 19.964C177.615 20.018 177.615 20.072 177.615 20.126C177.291 21.044 177.075 21.962 176.751 22.826C176.481 23.69 176.157 24.5 175.887 25.364C175.617 26.174 175.347 27.038 175.077 27.848C174.861 28.55 174.591 29.252 174.375 29.9C174.267 30.224 174.105 30.548 173.943 30.818C173.835 30.926 173.619 30.98 173.511 30.872C173.403 30.818 173.295 30.764 173.241 30.656C173.079 30.386 172.917 30.116 172.809 29.792C172.485 28.82 172.053 27.956 171.675 27.038C171.459 26.552 171.243 26.12 171.081 25.634C170.757 24.662 170.379 23.69 170.055 22.664C169.731 21.638 169.407 20.558 169.029 19.532C168.813 18.776 168.543 18.02 168.219 17.318C167.895 16.724 167.733 16.13 167.517 15.482C167.409 15.05 167.301 14.618 167.193 14.186C167.085 13.754 167.139 13.322 167.301 12.89C167.409 12.674 167.571 12.512 167.787 12.458C168.327 12.296 168.813 12.134 169.407 12.08C169.569 12.08 169.731 12.026 169.893 11.972C170.055 11.918 170.163 11.81 170.217 11.648C170.217 11.54 170.163 11.432 170.109 11.324C170.055 11.216 169.947 11.162 169.839 11.108C169.569 11.054 169.299 11.054 169.029 11C168.381 10.946 167.679 10.946 167.031 10.892C166.383 10.784 165.735 10.784 165.033 10.892C164.817 10.946 164.601 10.946 164.385 11C162.549 11.054 160.713 11.108 158.931 11.054C157.851 11.054 156.825 11.108 155.745 11.162C155.475 11.162 155.205 11.27 154.935 11.378C154.935 11.432 154.881 11.486 154.827 11.54C154.719 11.594 154.719 11.702 154.773 11.81C154.827 11.918 154.935 11.972 154.989 12.026C155.637 12.188 156.285 12.296 156.825 12.404ZM203.349 11.162C202.917 11.162 202.485 11.162 202.053 11.108C201.405 11.108 200.811 11.162 200.217 11.324C199.569 11.432 198.921 11.702 198.273 11.756C197.517 11.864 196.761 12.134 196.005 12.35C195.411 12.512 194.763 12.782 194.169 13.052C193.359 13.376 192.549 13.808 191.901 14.402C191.739 14.618 191.469 14.78 191.253 14.942C191.145 15.05 190.983 15.158 190.875 15.266C190.443 15.752 189.957 16.238 189.579 16.778C189.255 17.156 188.985 17.588 188.823 18.02C188.391 19.046 187.905 20.072 187.689 21.152C187.581 21.746 187.473 22.34 187.257 22.934C187.149 23.366 187.095 23.798 187.095 24.284C187.095 25.04 187.095 25.796 187.095 26.606C187.095 27.362 187.149 28.118 187.365 28.874C187.419 29.09 187.419 29.36 187.473 29.522C187.581 29.954 187.689 30.44 187.851 30.818C188.553 32.492 189.687 33.842 191.091 34.976C192.171 35.624 193.251 36.326 194.385 36.92C194.709 37.082 195.087 37.244 195.411 37.406C196.275 37.838 197.193 38 198.111 38.27C198.597 38.378 199.137 38.324 199.623 38.378C200.433 38.378 201.243 38.378 202.107 38.378C202.377 38.378 202.647 38.324 202.917 38.27C204.105 37.892 205.239 37.46 206.319 36.974C207.399 36.434 208.371 35.84 209.343 35.192C209.505 35.03 209.667 34.868 209.775 34.706C209.883 34.436 209.937 34.166 209.775 33.896C209.613 33.518 209.181 33.356 208.803 33.464C208.749 33.464 208.695 33.464 208.641 33.464C208.101 33.734 207.507 33.842 206.913 34.058C206.373 34.274 205.779 34.382 205.185 34.544C204.915 34.598 204.645 34.652 204.375 34.652C203.727 34.706 203.133 34.598 202.539 34.436C201.837 34.274 201.189 34.058 200.487 33.788C200.325 33.734 200.217 33.626 200.055 33.572C199.083 32.978 198.273 32.222 197.571 31.358C197.031 30.71 196.599 30.008 196.113 29.36C196.005 29.198 195.843 28.982 195.789 28.766C195.303 27.47 194.817 26.174 194.493 24.824C194.493 24.716 194.547 24.608 194.655 24.554C194.763 24.5 194.871 24.446 194.979 24.446C195.411 24.392 195.843 24.446 196.275 24.284C196.599 24.176 196.923 24.176 197.247 24.176C198.219 24.176 199.137 24.176 200.109 24.176C201.351 24.176 202.647 24.23 203.943 24.176C205.077 24.122 206.265 24.122 207.399 24.122C208.263 24.122 209.073 24.068 209.883 24.068C210.261 24.068 210.585 23.852 210.747 23.366C210.855 22.988 210.963 22.61 210.963 22.232C210.963 21.8 210.909 21.368 210.855 20.936C210.693 20.288 210.639 19.586 210.423 18.992C210.369 18.29 210.153 17.696 209.991 17.048C209.883 16.508 209.667 15.968 209.505 15.428C209.397 15.158 209.235 14.834 208.965 14.618C208.533 14.132 208.047 13.646 207.453 13.322C206.967 12.998 206.427 12.674 205.941 12.296C205.725 12.134 205.455 12.026 205.239 11.918C204.591 11.648 203.997 11.432 203.349 11.162ZM194.979 22.448C194.925 22.34 194.871 22.286 194.763 22.178C194.709 21.746 194.763 21.314 194.817 20.882C194.979 20.288 195.033 19.64 195.249 19.1C195.411 18.614 195.573 18.128 195.681 17.642C195.843 17.048 196.167 16.562 196.545 16.076C196.761 15.806 196.977 15.536 197.193 15.32C197.517 14.888 198.003 14.564 198.489 14.294C198.867 14.078 199.299 13.916 199.731 13.862C200.271 13.754 200.811 13.646 201.351 13.538C201.783 13.43 202.215 13.484 202.647 13.7C202.755 13.754 202.863 13.808 202.917 13.862C203.295 14.078 203.565 14.348 203.781 14.672C203.997 15.05 204.105 15.482 204.267 15.914C204.321 15.968 204.375 16.13 204.375 16.238C204.375 16.4 204.429 16.562 204.429 16.724C204.429 18.02 204.429 19.37 204.375 20.666C204.375 21.098 204.375 21.476 204.267 21.854C204.213 22.016 204.159 22.178 204.051 22.286C203.997 22.34 203.889 22.394 203.781 22.448C203.673 22.502 203.565 22.502 203.457 22.502C200.811 22.502 198.165 22.502 195.465 22.502C195.303 22.502 195.141 22.448 194.979 22.448Z" fill="black"/>
</svg>
