<?xml version="1.0" encoding="UTF-8"?>
<svg xmlns="http://www.w3.org/2000/svg" xmlns:xlink="http://www.w3.org/1999/xlink" viewBox="0 0 96 96" width="96px" height="96px">
<g id="surface906025">
<path style=" stroke:none;fill-rule:nonzero;fill:rgb(58.431375%,64.705884%,65.098041%);fill-opacity:1;" d="M 48 8 C 26 8 8 26 8 48 C 8 70 26 88 48 88 C 70 88 88 70 88 48 C 88 26 70 8 48 8 Z M 48 8 "/>
<path style=" stroke:none;fill-rule:nonzero;fill:rgb(100%,100%,100%);fill-opacity:1;" d="M 68 30 L 60.601562 68.199219 C 60.601562 68.199219 60.199219 70 58.199219 70 C 57 70 56.398438 69.398438 56.398438 69.398438 L 40 56 L 32 52 L 21.800781 49.199219 C 21.800781 49.199219 20 48.601562 20 47.199219 C 20 46 21.800781 45.398438 21.800781 45.398438 L 64.398438 28.398438 C 64.398438 28.398438 65.800781 28 66.601562 28 C 67.199219 28 67.800781 28.199219 67.800781 29 C 68 29.601562 68 30 68 30 Z M 68 30 "/>
<path style=" stroke:none;fill-rule:nonzero;fill:rgb(69.01961%,74.509805%,77.254903%);fill-opacity:1;" d="M 46 61 L 39.199219 67.800781 C 39.199219 67.800781 39 68 38.601562 68 C 38.398438 68 38.398438 68 38.199219 68 L 40.199219 56 Z M 46 61 "/>
<path style=" stroke:none;fill-rule:nonzero;fill:rgb(81.176472%,84.705883%,86.274511%);fill-opacity:1;" d="M 59.800781 36.398438 C 59.398438 36 58.800781 35.800781 58.398438 36.199219 L 32 52 C 32 52 36.199219 63.800781 36.800781 65.800781 C 37.398438 67.800781 38 67.800781 38 67.800781 L 40 55.800781 L 59.601562 37.601562 C 60 37.398438 60.199219 36.800781 59.800781 36.398438 Z M 59.800781 36.398438 "/>
</g>
</svg>
